{
  "accessors": [
    {
      "bufferView": 2,
      "componentType": 5126,
      "count": 592,
      "max": [
        53.461940765380859,
        53.461940765380859,
        100
      ],
      "min": [
        -53.461940765380859,
        -53.461940765380859,
        0
      ],
      "type": "VEC3"
    },
    {
      "bufferView": 2,
      "byteOffset": 7104,
      "componentType": 5126,
      "count": 592,
      "max": [
        1,
        1,
        1
      ],
      "min": [
        -1,
        -1,
        -1
      ],
      "type": "VEC3"
    },
    {
      "bufferView": 3,
      "componentType": 5126,
      "count": 592,
      "max": [
        1,
        0.99966335296630859,
        1,
        1
      ],
      "min": [
        -0.99992477893829346,
        -0.99966335296630859,
        -1,
        -1
      ],
      "type": "VEC4"
    },
    {
      "bufferView": 1,
      "componentType": 5126,
      "count": 592,
      "max": [
        0.98850333690643311,
        0.9865604043006897
      ],
      "min": [
        0.0096803680062294006,
        0.0064166798256337643
      ],
      "type": "VEC2"
    },
    {
      "bufferView": 0,
      "componentType": 5125,
      "count": 1188,
      "max": [
        591
      ],
      "min": [
        0
      ],
      "type": "SCALAR"
    },
    {
      "bufferView": 2,
      "byteOffset": 14208,
      "componentType": 5126,
      "count": 2705,
      "max": [
        55.1806640625,
        55.177528381347656,
        101.06267547607422
      ],
      "min": [
        -55.184768676757812,
        -55.181777954101562,
        68.202774047851562
      ],
      "type": "VEC3"
    },
    {
      "bufferView": 2,
      "byteOffset": 46668,
      "componentType": 5126,
      "count": 2705,
      "max": [
        0.99994516372680664,
        0.99994552135467529,
        1
      ],
      "min": [
        -0.99994975328445435,
        -0.9999508261680603,
        0.0097067235037684441
      ],
      "type": "VEC3"
    },
    {
      "bufferView": 3,
      "byteOffset": 9472,
      "componentType": 5126,
      "count": 2705,
      "max": [
        0.79306709766387939,
        0.78834444284439087,
        0.76550567150115967,
        1
      ],
      "min": [
        -0.0035655573010444641,
        -0.011770790442824364,
        -0.76614433526992798,
        1
      ],
      "type": "VEC4"
    },
    {
      "bufferView": 1,
      "byteOffset": 4736,
      "componentType": 5126,
      "count": 2705,
      "max": [
        1,
        1
      ],
      "min": [
        0,
        0
      ],
      "type": "VEC2"
    },
    {
      "bufferView": 0,
      "byteOffset": 4752,
      "componentType": 5125,
      "count": 15912,
      "max": [
        2704
      ],
      "min": [
        0
      ],
      "type": "SCALAR"
    }
  ],
  "asset": {
    "extras": {
      "author": "Ringo Gunther (https://sketchfab.com/ringogunther)",
      "license": "CC-BY-4.0 (http://creativecommons.org/licenses/by/4.0/)",
      "source": "https://sketchfab.com/3d-models/some-random-old-table-3f7029d274da4289b9e7b15529b92493",
      "title": "Some Random Old Table"
    },
    "generator": "Sketchfab-9.13.0",
    "version": "2.0"
  },
  "bufferViews": [
    {
      "buffer": 0,
      "byteLength": 68400,
      "byteOffset": 0,
      "name": "floatBufferViews",
      "target": 34963
    },
    {
      "buffer": 0,
      "byteLength": 26376,
      "byteOffset": 68400,
      "byteStride": 8,
      "name": "floatBufferViews",
      "target": 34962
    },
    {
      "buffer": 0,
      "byteLength": 79128,
      "byteOffset": 94776,
      "byteStride": 12,
      "name": "floatBufferViews",
      "target": 34962
    },
    {
      "buffer": 0,
      "byteLength": 52752,
      "byteOffset": 173904,
      "byteStride": 16,
      "name": "floatBufferViews",
      "target": 34962
    }
  ],
  "buffers": [
    {
      "byteLength": 226656,
      "uri": "scene.bin"
    }
  ],
  "images": [
    {
      "uri": "textures/Mesa_baseColor.jpeg"
    },
    {
      "uri": "textures/Mesa_metallicRoughness.png"
    },
    {
      "uri": "textures/Mesa_normal.png"
    },
    {
      "uri": "textures/Mantel_baseColor.jpeg"
    },
    {
      "uri": "textures/Mantel_metallicRoughness.png"
    },
    {
      "uri": "textures/Mantel_normal.png"
    }
  ],
  "materials": [
    {
      "doubleSided": true,
      "name": "Mesa",
      "normalTexture": {
        "index": 2,
        "scale": 1,
        "texCoord": 0
      },
      "occlusionTexture": {
        "index": 1,
        "strength": 1,
        "texCoord": 0
      },
      "pbrMetallicRoughness": {
        "baseColorFactor": [
          1,
          1,
          1,
          1
        ],
        "baseColorTexture": {
          "index": 0,
          "texCoord": 0
        },
        "metallicFactor": 1,
        "metallicRoughnessTexture": {
          "index": 1,
          "texCoord": 0
        },
        "roughnessFactor": 1
      }
    },
    {
      "doubleSided": true,
      "emissiveFactor": [
        0,
        0,
        0
      ],
      "name": "Mantel",
      "normalTexture": {
        "index": 5,
        "scale": 1,
        "texCoord": 0
      },
      "occlusionTexture": {
        "index": 4,
        "strength": 1,
        "texCoord": 0
      },
      "pbrMetallicRoughness": {
        "baseColorFactor": [
          1,
          1,
          1,
          1
        ],
        "baseColorTexture": {
          "index": 3,
          "texCoord": 0
        },
        "metallicFactor": 1,
        "metallicRoughnessTexture": {
          "index": 4,
          "texCoord": 0
        },
        "roughnessFactor": 1
      }
    }
  ],
  "meshes": [
    {
      "name": "Box001_Mesa_0",
      "primitives": [
        {
          "attributes": {
            "NORMAL": 1,
            "POSITION": 0,
            "TANGENT": 2,
            "TEXCOORD_0": 3
          },
          "indices": 4,
          "material": 0,
          "mode": 4
        }
      ]
    },
    {
      "name": "Box001_Mantel_0",
      "primitives": [
        {
          "attributes": {
            "NORMAL": 6,
            "POSITION": 5,
            "TANGENT": 7,
            "TEXCOORD_0": 8
          },
          "indices": 9,
          "material": 1,
          "mode": 4
        }
      ]
    }
  ],
  "nodes": [
    {
      "children": [
        1
      ],
      "name": "RootNode (gltf orientation matrix)",
      "rotation": [
        -0.70710678118654746,
        -0,
        -0,
        0.70710678118654757
      ]
    },
    {
      "children": [
        2
      ],
      "matrix": [
        1,
        0,
        0,
        0,
        0,
        -1,
        2.832769343193999e-16,
        0,
        0,
        -2.832769343193999e-16,
        -1,
        0,
        0,
        0.004302978515625,
        -101.06267547607422,
        1
      ],
      "name": "RootNode (model correction matrix)"
    },
    {
      "children": [
        3
      ],
      "matrix": [
        1,
        0,
        0,
        0,
        0,
        -1,
        0,
        0,
        0,
        0,
        -1,
        0,
        0,
        0,
        0,
        1
      ],
      "name": "0db001ca72be49659029141e5a143fd4.fbx"
    },
    {
      "children": [
        4
      ],
      "name": "RootNode"
    },
    {
      "children": [
        5,
        6
      ],
      "name": "Box001"
    },
    {
      "mesh": 0,
      "name": "Box001_Mesa_0"
    },
    {
      "mesh": 1,
      "name": "Box001_Mantel_0"
    }
  ],
  "samplers": [
    {
      "magFilter": 9729,
      "minFilter": 9987,
      "wrapS": 10497,
      "wrapT": 10497
    }
  ],
  "scene": 0,
  "scenes": [
    {
      "name": "OSG_Scene",
      "nodes": [
        0
      ]
    }
  ],
  "textures": [
    {
      "sampler": 0,
      "source": 0
    },
    {
      "sampler": 0,
      "source": 1
    },
    {
      "sampler": 0,
      "source": 2
    },
    {
      "sampler": 0,
      "source": 3
    },
    {
      "sampler": 0,
      "source": 4
    },
    {
      "sampler": 0,
      "source": 5
    }
  ]
}

