{
    "asset" : {
        "generator" : "Khronos glTF Blender I/O v1.7.33",
        "version" : "2.0"
    },
    "scene" : 0,
    "scenes" : [
        {
            "name" : "Scene",
            "nodes" : [
                14
            ]
        }
    ],
    "nodes" : [
        {
            "mesh" : 0,
            "name" : "defaultMaterial.002"
        },
        {
            "children" : [
                0
            ],
            "name" : "2f"
        },
        {
            "mesh" : 1,
            "name" : "defaultMaterial.003"
        },
        {
            "children" : [
                2
            ],
            "name" : "hashira"
        },
        {
            "mesh" : 2,
            "name" : "defaultMaterial"
        },
        {
            "children" : [
                4
            ],
            "name" : "kobin"
        },
        {
            "mesh" : 3,
            "name" : "defaultMaterial.001"
        },
        {
            "children" : [
                6
            ],
            "name" : "kusa"
        },
        {
            "mesh" : 4,
            "name" : "defaultMaterial.004"
        },
        {
            "children" : [
                8
            ],
            "name" : "room"
        },
        {
            "mesh" : 5,
            "name" : "defaultMaterial.005"
        },
        {
            "mesh" : 6,
            "name" : "defaultMaterial.006"
        },
        {
            "children" : [
                10,
                11
            ],
            "name" : "teburu"
        },
        {
            "children" : [
                1,
                3,
                5,
                7,
                9,
                12
            ],
            "name" : "Collada visual scene group",
            "rotation" : [
                0.7071068286895752,
                0,
                0,
                0.7071068286895752
            ]
        },
        {
            "children" : [
                13
            ],
            "name" : "Sketchfab_model",
            "rotation" : [
                -0.7071068286895752,
                0,
                0,
                0.7071068286895752
            ],
            "translation" : [
                0,
                0.3499999940395355,
                0
            ]
        }
    ],
    "materials" : [
        {
            "doubleSided" : true,
            "name" : "material",
            "normalTexture" : {
                "index" : 0
            },
            "occlusionTexture" : {
                "index" : 1
            },
            "pbrMetallicRoughness" : {
                "baseColorTexture" : {
                    "index" : 2
                },
                "metallicRoughnessTexture" : {
                    "index" : 1
                }
            }
        },
        {
            "doubleSided" : true,
            "name" : "hashira.001",
            "normalTexture" : {
                "index" : 3
            },
            "occlusionTexture" : {
                "index" : 4
            },
            "pbrMetallicRoughness" : {
                "baseColorTexture" : {
                    "index" : 5
                },
                "metallicRoughnessTexture" : {
                    "index" : 4
                }
            }
        },
        {
            "doubleSided" : true,
            "name" : "kobin.001",
            "normalTexture" : {
                "index" : 6
            },
            "occlusionTexture" : {
                "index" : 7
            },
            "pbrMetallicRoughness" : {
                "baseColorTexture" : {
                    "index" : 8
                },
                "metallicRoughnessTexture" : {
                    "index" : 7
                }
            }
        },
        {
            "doubleSided" : true,
            "name" : "kusa.001",
            "normalTexture" : {
                "index" : 9
            },
            "occlusionTexture" : {
                "index" : 10
            },
            "pbrMetallicRoughness" : {
                "baseColorTexture" : {
                    "index" : 11
                },
                "metallicRoughnessTexture" : {
                    "index" : 10
                }
            }
        },
        {
            "doubleSided" : true,
            "name" : "room.001",
            "normalTexture" : {
                "index" : 12
            },
            "occlusionTexture" : {
                "index" : 13
            },
            "pbrMetallicRoughness" : {
                "baseColorTexture" : {
                    "index" : 14
                },
                "metallicRoughnessTexture" : {
                    "index" : 13
                }
            }
        },
        {
            "doubleSided" : true,
            "name" : "teburu.001",
            "normalTexture" : {
                "index" : 15
            },
            "occlusionTexture" : {
                "index" : 16
            },
            "pbrMetallicRoughness" : {
                "baseColorTexture" : {
                    "index" : 17
                },
                "metallicRoughnessTexture" : {
                    "index" : 16
                }
            }
        }
    ],
    "meshes" : [
        {
            "name" : "defaultMaterial.002",
            "primitives" : [
                {
                    "attributes" : {
                        "POSITION" : 0,
                        "NORMAL" : 1,
                        "TEXCOORD_0" : 2
                    },
                    "indices" : 3,
                    "material" : 0
                }
            ]
        },
        {
            "name" : "defaultMaterial.003",
            "primitives" : [
                {
                    "attributes" : {
                        "POSITION" : 4,
                        "NORMAL" : 5,
                        "TEXCOORD_0" : 6
                    },
                    "indices" : 7,
                    "material" : 1
                }
            ]
        },
        {
            "name" : "defaultMaterial",
            "primitives" : [
                {
                    "attributes" : {
                        "POSITION" : 8,
                        "NORMAL" : 9,
                        "TEXCOORD_0" : 10
                    },
                    "indices" : 11,
                    "material" : 2
                }
            ]
        },
        {
            "name" : "defaultMaterial.001",
            "primitives" : [
                {
                    "attributes" : {
                        "POSITION" : 12,
                        "NORMAL" : 13,
                        "TEXCOORD_0" : 14
                    },
                    "indices" : 15,
                    "material" : 3
                }
            ]
        },
        {
            "name" : "defaultMaterial.004",
            "primitives" : [
                {
                    "attributes" : {
                        "POSITION" : 16,
                        "NORMAL" : 17,
                        "TEXCOORD_0" : 18
                    },
                    "indices" : 19,
                    "material" : 4
                }
            ]
        },
        {
            "name" : "defaultMaterial.005",
            "primitives" : [
                {
                    "attributes" : {
                        "POSITION" : 20,
                        "NORMAL" : 21,
                        "TEXCOORD_0" : 22
                    },
                    "indices" : 23,
                    "material" : 5
                }
            ]
        },
        {
            "name" : "defaultMaterial.006",
            "primitives" : [
                {
                    "attributes" : {
                        "POSITION" : 24,
                        "NORMAL" : 25,
                        "TEXCOORD_0" : 26
                    },
                    "indices" : 27,
                    "material" : 5
                }
            ]
        }
    ],
    "textures" : [
        {
            "sampler" : 0,
            "source" : 0
        },
        {
            "sampler" : 0,
            "source" : 1
        },
        {
            "sampler" : 0,
            "source" : 2
        },
        {
            "sampler" : 0,
            "source" : 3
        },
        {
            "sampler" : 0,
            "source" : 4
        },
        {
            "sampler" : 0,
            "source" : 5
        },
        {
            "sampler" : 0,
            "source" : 6
        },
        {
            "sampler" : 0,
            "source" : 7
        },
        {
            "sampler" : 0,
            "source" : 8
        },
        {
            "sampler" : 0,
            "source" : 9
        },
        {
            "sampler" : 0,
            "source" : 10
        },
        {
            "sampler" : 0,
            "source" : 11
        },
        {
            "sampler" : 0,
            "source" : 12
        },
        {
            "sampler" : 0,
            "source" : 13
        },
        {
            "sampler" : 0,
            "source" : 14
        },
        {
            "sampler" : 0,
            "source" : 15
        },
        {
            "sampler" : 0,
            "source" : 16
        },
        {
            "sampler" : 0,
            "source" : 17
        }
    ],
    "images" : [
        {
            "mimeType" : "image/png",
            "name" : "material_normal",
            "uri" : "material_normal.png"
        },
        {
            "mimeType" : "image/png",
            "name" : "material_metallicRoughness",
            "uri" : "material_metallicRoughness.png"
        },
        {
            "mimeType" : "image/jpeg",
            "name" : "material_baseColor",
            "uri" : "material_baseColor.jpg"
        },
        {
            "mimeType" : "image/png",
            "name" : "hashira_normal",
            "uri" : "hashira_normal.png"
        },
        {
            "mimeType" : "image/png",
            "name" : "hashira_metallicRoughness",
            "uri" : "hashira_metallicRoughness.png"
        },
        {
            "mimeType" : "image/jpeg",
            "name" : "hashira_baseColor",
            "uri" : "hashira_baseColor.jpg"
        },
        {
            "mimeType" : "image/png",
            "name" : "kobin_normal",
            "uri" : "kobin_normal.png"
        },
        {
            "mimeType" : "image/png",
            "name" : "kobin_metallicRoughness",
            "uri" : "kobin_metallicRoughness.png"
        },
        {
            "mimeType" : "image/jpeg",
            "name" : "kobin_baseColor",
            "uri" : "kobin_baseColor.jpg"
        },
        {
            "mimeType" : "image/png",
            "name" : "kusa_normal",
            "uri" : "kusa_normal.png"
        },
        {
            "mimeType" : "image/png",
            "name" : "kusa_metallicRoughness",
            "uri" : "kusa_metallicRoughness.png"
        },
        {
            "mimeType" : "image/jpeg",
            "name" : "kusa_baseColor",
            "uri" : "kusa_baseColor.jpg"
        },
        {
            "mimeType" : "image/png",
            "name" : "room_normal",
            "uri" : "room_normal.png"
        },
        {
            "mimeType" : "image/png",
            "name" : "room_metallicRoughness",
            "uri" : "room_metallicRoughness.png"
        },
        {
            "mimeType" : "image/jpeg",
            "name" : "room_baseColor",
            "uri" : "room_baseColor.jpg"
        },
        {
            "mimeType" : "image/png",
            "name" : "teburu_normal",
            "uri" : "teburu_normal.png"
        },
        {
            "mimeType" : "image/png",
            "name" : "teburu_metallicRoughness",
            "uri" : "teburu_metallicRoughness.png"
        },
        {
            "mimeType" : "image/jpeg",
            "name" : "teburu_baseColor",
            "uri" : "teburu_baseColor.jpg"
        }
    ],
    "accessors" : [
        {
            "bufferView" : 0,
            "componentType" : 5126,
            "count" : 269,
            "max" : [
                1,
                0.34926098585128784,
                0.40351998805999756
            ],
            "min" : [
                -0.995917022228241,
                0.10747399926185608,
                -0.413536012172699
            ],
            "type" : "VEC3"
        },
        {
            "bufferView" : 1,
            "componentType" : 5126,
            "count" : 269,
            "type" : "VEC3"
        },
        {
            "bufferView" : 2,
            "componentType" : 5126,
            "count" : 269,
            "type" : "VEC2"
        },
        {
            "bufferView" : 3,
            "componentType" : 5123,
            "count" : 624,
            "type" : "SCALAR"
        },
        {
            "bufferView" : 4,
            "componentType" : 5126,
            "count" : 2484,
            "max" : [
                0.8893370032310486,
                0.1225380003452301,
                0.269335001707077
            ],
            "min" : [
                0.8096640110015869,
                -0.34605199098587036,
                0.18966199457645416
            ],
            "type" : "VEC3"
        },
        {
            "bufferView" : 5,
            "componentType" : 5126,
            "count" : 2484,
            "type" : "VEC3"
        },
        {
            "bufferView" : 6,
            "componentType" : 5126,
            "count" : 2484,
            "type" : "VEC2"
        },
        {
            "bufferView" : 7,
            "componentType" : 5123,
            "count" : 2964,
            "type" : "SCALAR"
        },
        {
            "bufferView" : 8,
            "componentType" : 5126,
            "count" : 14528,
            "max" : [
                0.4997110068798065,
                -0.10151500254869461,
                -0.15329299867153168
            ],
            "min" : [
                0.4125959873199463,
                -0.20165100693702698,
                -0.3043670058250427
            ],
            "type" : "VEC3"
        },
        {
            "bufferView" : 9,
            "componentType" : 5126,
            "count" : 14528,
            "type" : "VEC3"
        },
        {
            "bufferView" : 10,
            "componentType" : 5126,
            "count" : 14528,
            "type" : "VEC2"
        },
        {
            "bufferView" : 11,
            "componentType" : 5123,
            "count" : 62334,
            "type" : "SCALAR"
        },
        {
            "bufferView" : 12,
            "componentType" : 5126,
            "count" : 719,
            "max" : [
                0.7391160130500793,
                -0.1928189992904663,
                -0.03907519951462746
            ],
            "min" : [
                0.6381530165672302,
                -0.33740198612213135,
                -0.11838100105524063
            ],
            "type" : "VEC3"
        },
        {
            "bufferView" : 13,
            "componentType" : 5126,
            "count" : 719,
            "type" : "VEC3"
        },
        {
            "bufferView" : 14,
            "componentType" : 5126,
            "count" : 719,
            "type" : "VEC2"
        },
        {
            "bufferView" : 15,
            "componentType" : 5123,
            "count" : 2094,
            "type" : "SCALAR"
        },
        {
            "bufferView" : 16,
            "componentType" : 5126,
            "count" : 41117,
            "max" : [
                1,
                0.1897760033607483,
                0.413536012172699
            ],
            "min" : [
                -1,
                -0.34926098585128784,
                -0.413536012172699
            ],
            "type" : "VEC3"
        },
        {
            "bufferView" : 17,
            "componentType" : 5126,
            "count" : 41117,
            "type" : "VEC3"
        },
        {
            "bufferView" : 18,
            "componentType" : 5126,
            "count" : 41117,
            "type" : "VEC2"
        },
        {
            "bufferView" : 19,
            "componentType" : 5123,
            "count" : 56382,
            "type" : "SCALAR"
        },
        {
            "bufferView" : 20,
            "componentType" : 5126,
            "count" : 72494,
            "max" : [
                0.013201500289142132,
                -0.13607600331306458,
                0.028039200231432915
            ],
            "min" : [
                -0.287090003490448,
                -0.33864399790763855,
                -0.2289389967918396
            ],
            "type" : "VEC3"
        },
        {
            "bufferView" : 21,
            "componentType" : 5126,
            "count" : 72494,
            "type" : "VEC3"
        },
        {
            "bufferView" : 22,
            "componentType" : 5126,
            "count" : 72494,
            "type" : "VEC2"
        },
        {
            "bufferView" : 23,
            "componentType" : 5125,
            "count" : 82098,
            "type" : "SCALAR"
        },
        {
            "bufferView" : 24,
            "componentType" : 5126,
            "count" : 16614,
            "max" : [
                -0.12190599739551544,
                -0.14927199482917786,
                -0.05876019969582558
            ],
            "min" : [
                -0.1708039939403534,
                -0.20758099853992462,
                -0.12070100009441376
            ],
            "type" : "VEC3"
        },
        {
            "bufferView" : 25,
            "componentType" : 5126,
            "count" : 16614,
            "type" : "VEC3"
        },
        {
            "bufferView" : 26,
            "componentType" : 5126,
            "count" : 16614,
            "type" : "VEC2"
        },
        {
            "bufferView" : 27,
            "componentType" : 5123,
            "count" : 16662,
            "type" : "SCALAR"
        }
    ],
    "bufferViews" : [
        {
            "buffer" : 0,
            "byteLength" : 3228,
            "byteOffset" : 0
        },
        {
            "buffer" : 0,
            "byteLength" : 3228,
            "byteOffset" : 3228
        },
        {
            "buffer" : 0,
            "byteLength" : 2152,
            "byteOffset" : 6456
        },
        {
            "buffer" : 0,
            "byteLength" : 1248,
            "byteOffset" : 8608
        },
        {
            "buffer" : 0,
            "byteLength" : 29808,
            "byteOffset" : 9856
        },
        {
            "buffer" : 0,
            "byteLength" : 29808,
            "byteOffset" : 39664
        },
        {
            "buffer" : 0,
            "byteLength" : 19872,
            "byteOffset" : 69472
        },
        {
            "buffer" : 0,
            "byteLength" : 5928,
            "byteOffset" : 89344
        },
        {
            "buffer" : 0,
            "byteLength" : 174336,
            "byteOffset" : 95272
        },
        {
            "buffer" : 0,
            "byteLength" : 174336,
            "byteOffset" : 269608
        },
        {
            "buffer" : 0,
            "byteLength" : 116224,
            "byteOffset" : 443944
        },
        {
            "buffer" : 0,
            "byteLength" : 124668,
            "byteOffset" : 560168
        },
        {
            "buffer" : 0,
            "byteLength" : 8628,
            "byteOffset" : 684836
        },
        {
            "buffer" : 0,
            "byteLength" : 8628,
            "byteOffset" : 693464
        },
        {
            "buffer" : 0,
            "byteLength" : 5752,
            "byteOffset" : 702092
        },
        {
            "buffer" : 0,
            "byteLength" : 4188,
            "byteOffset" : 707844
        },
        {
            "buffer" : 0,
            "byteLength" : 493404,
            "byteOffset" : 712032
        },
        {
            "buffer" : 0,
            "byteLength" : 493404,
            "byteOffset" : 1205436
        },
        {
            "buffer" : 0,
            "byteLength" : 328936,
            "byteOffset" : 1698840
        },
        {
            "buffer" : 0,
            "byteLength" : 112764,
            "byteOffset" : 2027776
        },
        {
            "buffer" : 0,
            "byteLength" : 869928,
            "byteOffset" : 2140540
        },
        {
            "buffer" : 0,
            "byteLength" : 869928,
            "byteOffset" : 3010468
        },
        {
            "buffer" : 0,
            "byteLength" : 579952,
            "byteOffset" : 3880396
        },
        {
            "buffer" : 0,
            "byteLength" : 328392,
            "byteOffset" : 4460348
        },
        {
            "buffer" : 0,
            "byteLength" : 199368,
            "byteOffset" : 4788740
        },
        {
            "buffer" : 0,
            "byteLength" : 199368,
            "byteOffset" : 4988108
        },
        {
            "buffer" : 0,
            "byteLength" : 132912,
            "byteOffset" : 5187476
        },
        {
            "buffer" : 0,
            "byteLength" : 33324,
            "byteOffset" : 5320388
        }
    ],
    "samplers" : [
        {
            "magFilter" : 9729,
            "minFilter" : 9987
        }
    ],
    "buffers" : [
        {
            "byteLength" : 5353712,
            "uri" : "scene.bin"
        }
    ]
}
