{
  "accessors": [
    {
      "bufferView": 2,
      "componentType": 5126,
      "count": 77,
      "max": [
        13.745771408081055,
        0.3210810124874115,
        9.28735637664795
      ],
      "min": [
        -13.707868576049805,
        -0.20351000130176544,
        -0.0016659999964758754
      ],
      "type": "VEC3"
    },
    {
      "bufferView": 1,
      "componentType": 5126,
      "count": 77,
      "max": [
        0.0,
        0.0
      ],
      "min": [
        0.0,
        0.0
      ],
      "type": "VEC2"
    },
    {
      "bufferView": 0,
      "componentType": 5125,
      "count": 104,
      "type": "SCALAR"
    },
    {
      "bufferView": 2,
      "byteOffset": 924,
      "componentType": 5126,
      "count": 65532,
      "max": [
        9.264245986938477,
        0.5122960209846497,
        9.320956230163574
      ],
      "min": [
        -13.723763465881348,
        -0.27275699377059937,
        -0.0014860000228509307
      ],
      "type": "VEC3"
    },
    {
      "bufferView": 2,
      "byteOffset": 787308,
      "componentType": 5126,
      "count": 65532,
      "max": [
        0.9996863007545471,
        0.9834775924682617,
        0.9998942613601685
      ],
      "min": [
        -0.9998979568481445,
        -0.9999977350234985,
        -0.9999021291732788
      ],
      "type": "VEC3"
    },
    {
      "bufferView": 3,
      "componentType": 5126,
      "count": 65532,
      "max": [
        0.9994342923164368,
        0.9999566078186035,
        0.9999990463256836,
        1.0
      ],
      "min": [
        -0.9999014735221863,
        -0.9998951554298401,
        -0.9999973773956299,
        -1.0
      ],
      "type": "VEC4"
    },
    {
      "bufferView": 1,
      "byteOffset": 616,
      "componentType": 5126,
      "count": 65532,
      "max": [
        0.8582689762115479,
        0.9999989867210388
      ],
      "min": [
        0.0,
        9.999999974752427e-07
      ],
      "type": "VEC2"
    },
    {
      "bufferView": 0,
      "byteOffset": 416,
      "componentType": 5125,
      "count": 244188,
      "type": "SCALAR"
    },
    {
      "bufferView": 2,
      "byteOffset": 1573692,
      "componentType": 5126,
      "count": 65532,
      "max": [
        13.749053955078125,
        0.48615801334381104,
        9.246033668518066
      ],
      "min": [
        -13.717033386230469,
        -0.27275699377059937,
        -0.001686000032350421
      ],
      "type": "VEC3"
    },
    {
      "bufferView": 2,
      "byteOffset": 2360076,
      "componentType": 5126,
      "count": 65532,
      "max": [
        0.9995841383934021,
        0.9971965551376343,
        0.9998294711112976
      ],
      "min": [
        -0.9998655319213867,
        -0.9999953508377075,
        -0.9999626874923706
      ],
      "type": "VEC3"
    },
    {
      "bufferView": 3,
      "byteOffset": 1048512,
      "componentType": 5126,
      "count": 65532,
      "max": [
        0.9999123811721802,
        0.9999387860298157,
        0.9999990463256836,
        1.0
      ],
      "min": [
        -0.9999858140945435,
        -0.999821126461029,
        -0.9999986290931702,
        -1.0
      ],
      "type": "VEC4"
    },
    {
      "bufferView": 1,
      "byteOffset": 524872,
      "componentType": 5126,
      "count": 65532,
      "max": [
        0.8583130240440369,
        0.9981120228767395
      ],
      "min": [
        0.01130400039255619,
        9.999999974752427e-07
      ],
      "type": "VEC2"
    },
    {
      "bufferView": 0,
      "byteOffset": 977168,
      "componentType": 5125,
      "count": 208116,
      "type": "SCALAR"
    },
    {
      "bufferView": 2,
      "byteOffset": 3146460,
      "componentType": 5126,
      "count": 19945,
      "max": [
        13.746891975402832,
        0.5051860213279724,
        9.281731605529785
      ],
      "min": [
        -13.723763465881348,
        -0.2413170039653778,
        -0.0014860000228509307
      ],
      "type": "VEC3"
    },
    {
      "bufferView": 2,
      "byteOffset": 3385800,
      "componentType": 5126,
      "count": 19945,
      "max": [
        0.9989687204360962,
        0.9880645275115967,
        0.9996634125709534
      ],
      "min": [
        -0.999588668346405,
        -0.9999958276748657,
        -0.9999626874923706
      ],
      "type": "VEC3"
    },
    {
      "bufferView": 3,
      "byteOffset": 2097024,
      "componentType": 5126,
      "count": 19945,
      "max": [
        0.9998383522033691,
        0.9999876618385315,
        0.9999927282333374,
        1.0
      ],
      "min": [
        -0.9999966025352478,
        -0.9998428821563721,
        -0.9999783635139465,
        -1.0
      ],
      "type": "VEC4"
    },
    {
      "bufferView": 1,
      "byteOffset": 1049128,
      "componentType": 5126,
      "count": 19945,
      "max": [
        0.8583080172538757,
        0.9984319806098938
      ],
      "min": [
        0.01271700020879507,
        9.999999974752427e-07
      ],
      "type": "VEC2"
    },
    {
      "bufferView": 0,
      "byteOffset": 1809632,
      "componentType": 5125,
      "count": 24843,
      "type": "SCALAR"
    }
  ],
  "asset": {
    "extras": {
      "author": "Zygomir.Fabricati.Diem (https://sketchfab.com/ZygomirFabricatiDiem)",
      "license": "CC-BY-4.0 (http://creativecommons.org/licenses/by/4.0/)",
      "source": "https://sketchfab.com/3d-models/old-brick-wall-dea8c80eb9ac4a7cb786e3ae8c21078e",
      "title": "Old brick wall"
    },
    "generator": "Sketchfab-10.67.0",
    "version": "2.0"
  },
  "bufferViews": [
    {
      "buffer": 0,
      "byteLength": 1909004,
      "name": "floatBufferViews",
      "target": 34963
    },
    {
      "buffer": 0,
      "byteLength": 1208688,
      "byteOffset": 1909004,
      "byteStride": 8,
      "name": "floatBufferViews",
      "target": 34962
    },
    {
      "buffer": 0,
      "byteLength": 3625140,
      "byteOffset": 3117692,
      "byteStride": 12,
      "name": "floatBufferViews",
      "target": 34962
    },
    {
      "buffer": 0,
      "byteLength": 2416144,
      "byteOffset": 6742832,
      "byteStride": 16,
      "name": "floatBufferViews",
      "target": 34962
    }
  ],
  "buffers": [
    {
      "byteLength": 9158976,
      "uri": "scene.bin"
    }
  ],
  "images": [
    {
      "uri": "textures/material_baseColor.png"
    },
    {
      "uri": "textures/material_metallicRoughness.png"
    },
    {
      "uri": "textures/material_normal.png"
    }
  ],
  "materials": [
    {
      "doubleSided": true,
      "name": "material",
      "normalTexture": {
        "index": 2
      },
      "occlusionTexture": {
        "index": 1
      },
      "pbrMetallicRoughness": {
        "baseColorTexture": {
          "index": 0
        },
        "metallicRoughnessTexture": {
          "index": 1
        }
      }
    }
  ],
  "meshes": [
    {
      "name": "Object_0",
      "primitives": [
        {
          "attributes": {
            "POSITION": 0,
            "TEXCOORD_0": 1
          },
          "indices": 2,
          "material": 0,
          "mode": 1
        }
      ]
    },
    {
      "name": "Object_1",
      "primitives": [
        {
          "attributes": {
            "NORMAL": 4,
            "POSITION": 3,
            "TANGENT": 5,
            "TEXCOORD_0": 6
          },
          "indices": 7,
          "material": 0,
          "mode": 4
        }
      ]
    },
    {
      "name": "Object_2",
      "primitives": [
        {
          "attributes": {
            "NORMAL": 9,
            "POSITION": 8,
            "TANGENT": 10,
            "TEXCOORD_0": 11
          },
          "indices": 12,
          "material": 0,
          "mode": 4
        }
      ]
    },
    {
      "name": "Object_3",
      "primitives": [
        {
          "attributes": {
            "NORMAL": 14,
            "POSITION": 13,
            "TANGENT": 15,
            "TEXCOORD_0": 16
          },
          "indices": 17,
          "material": 0,
          "mode": 4
        }
      ]
    }
  ],
  "nodes": [
    {
      "children": [
        1
      ],
      "matrix": [
        1.0,
        0.0,
        0.0,
        0.0,
        0.0,
        2.220446049250313e-16,
        -1.0,
        0.0,
        0.0,
        1.0,
        2.220446049250313e-16,
        0.0,
        0.0,
        0.0,
        0.0,
        1.0
      ],
      "name": "Sketchfab_model"
    },
    {
      "children": [
        2,
        3,
        4,
        5
      ],
      "name": "mur_obr.obj.cleaner.materialmerger.gles"
    },
    {
      "mesh": 0,
      "name": "Object_2"
    },
    {
      "mesh": 1,
      "name": "Object_3"
    },
    {
      "mesh": 2,
      "name": "Object_4"
    },
    {
      "mesh": 3,
      "name": "Object_5"
    }
  ],
  "samplers": [
    {
      "magFilter": 9729,
      "minFilter": 9987,
      "wrapS": 10497,
      "wrapT": 10497
    }
  ],
  "scene": 0,
  "scenes": [
    {
      "name": "Sketchfab_Scene",
      "nodes": [
        0
      ]
    }
  ],
  "textures": [
    {
      "sampler": 0,
      "source": 0
    },
    {
      "sampler": 0,
      "source": 1
    },
    {
      "sampler": 0,
      "source": 2
    }
  ]
}
