{
    "asset" : {
        "generator" : "Khronos glTF Blender I/O v1.7.33",
        "version" : "2.0"
    },
    "scene" : 0,
    "scenes" : [
        {
            "name" : "Scene",
            "nodes" : [
                0,
                1,
                2,
                3
            ]
        }
    ],
    "nodes" : [
        {
            "name" : "Object_2",
            "rotation" : [
                -0.7071068286895752,
                0,
                0,
                0.7071067094802856
            ]
        },
        {
            "mesh" : 0,
            "name" : "Object_3",
            "rotation" : [
                -0.7071068286895752,
                0,
                0,
                0.7071067094802856
            ]
        },
        {
            "mesh" : 1,
            "name" : "Object_4",
            "rotation" : [
                -0.7071068286895752,
                0,
                0,
                0.7071067094802856
            ]
        },
        {
            "mesh" : 2,
            "name" : "Object_5",
            "rotation" : [
                -0.7071068286895752,
                0,
                0,
                0.7071067094802856
            ]
        }
    ],
    "materials" : [
        {
            "doubleSided" : true,
            "name" : "material",
            "normalTexture" : {
                "index" : 0
            },
            "pbrMetallicRoughness" : {
                "baseColorTexture" : {
                    "index" : 1
                },
                "metallicFactor" : 0,
                "roughnessFactor" : 0.5
            }
        }
    ],
    "meshes" : [
        {
            "name" : "Object_1",
            "primitives" : [
                {
                    "attributes" : {
                        "POSITION" : 0,
                        "NORMAL" : 1,
                        "TEXCOORD_0" : 2
                    },
                    "indices" : 3,
                    "material" : 0
                }
            ]
        },
        {
            "name" : "Object_2",
            "primitives" : [
                {
                    "attributes" : {
                        "POSITION" : 4,
                        "NORMAL" : 5,
                        "TEXCOORD_0" : 6
                    },
                    "indices" : 7,
                    "material" : 0
                }
            ]
        },
        {
            "name" : "Object_3",
            "primitives" : [
                {
                    "attributes" : {
                        "POSITION" : 8,
                        "NORMAL" : 9,
                        "TEXCOORD_0" : 10
                    },
                    "indices" : 11,
                    "material" : 0
                }
            ]
        }
    ],
    "textures" : [
        {
            "sampler" : 0,
            "source" : 0
        },
        {
            "sampler" : 0,
            "source" : 1
        }
    ],
    "images" : [
        {
            "mimeType" : "image/png",
            "name" : "material_normal",
            "uri" : "material_normal.png"
        },
        {
            "mimeType" : "image/png",
            "name" : "material_baseColor",
            "uri" : "material_baseColor.png"
        }
    ],
    "accessors" : [
        {
            "bufferView" : 0,
            "componentType" : 5126,
            "count" : 66798,
            "max" : [
                9.264245986938477,
                0.5122960209846497,
                9.320956230163574
            ],
            "min" : [
                -13.723763465881348,
                -0.27275699377059937,
                -0.0014860000228509307
            ],
            "type" : "VEC3"
        },
        {
            "bufferView" : 1,
            "componentType" : 5126,
            "count" : 66798,
            "type" : "VEC3"
        },
        {
            "bufferView" : 2,
            "componentType" : 5126,
            "count" : 66798,
            "type" : "VEC2"
        },
        {
            "bufferView" : 3,
            "componentType" : 5125,
            "count" : 244188,
            "type" : "SCALAR"
        },
        {
            "bufferView" : 4,
            "componentType" : 5126,
            "count" : 66608,
            "max" : [
                13.749053955078125,
                0.48615801334381104,
                9.246033668518066
            ],
            "min" : [
                -13.717033386230469,
                -0.27275699377059937,
                -0.001686000032350421
            ],
            "type" : "VEC3"
        },
        {
            "bufferView" : 5,
            "componentType" : 5126,
            "count" : 66608,
            "type" : "VEC3"
        },
        {
            "bufferView" : 6,
            "componentType" : 5126,
            "count" : 66608,
            "type" : "VEC2"
        },
        {
            "bufferView" : 7,
            "componentType" : 5125,
            "count" : 208116,
            "type" : "SCALAR"
        },
        {
            "bufferView" : 8,
            "componentType" : 5126,
            "count" : 20007,
            "max" : [
                13.746891975402832,
                0.5051860213279724,
                9.281731605529785
            ],
            "min" : [
                -13.723763465881348,
                -0.2413170039653778,
                -0.0014860000228509307
            ],
            "type" : "VEC3"
        },
        {
            "bufferView" : 9,
            "componentType" : 5126,
            "count" : 20007,
            "type" : "VEC3"
        },
        {
            "bufferView" : 10,
            "componentType" : 5126,
            "count" : 20007,
            "type" : "VEC2"
        },
        {
            "bufferView" : 11,
            "componentType" : 5123,
            "count" : 24843,
            "type" : "SCALAR"
        }
    ],
    "bufferViews" : [
        {
            "buffer" : 0,
            "byteLength" : 801576,
            "byteOffset" : 0
        },
        {
            "buffer" : 0,
            "byteLength" : 801576,
            "byteOffset" : 801576
        },
        {
            "buffer" : 0,
            "byteLength" : 534384,
            "byteOffset" : 1603152
        },
        {
            "buffer" : 0,
            "byteLength" : 976752,
            "byteOffset" : 2137536
        },
        {
            "buffer" : 0,
            "byteLength" : 799296,
            "byteOffset" : 3114288
        },
        {
            "buffer" : 0,
            "byteLength" : 799296,
            "byteOffset" : 3913584
        },
        {
            "buffer" : 0,
            "byteLength" : 532864,
            "byteOffset" : 4712880
        },
        {
            "buffer" : 0,
            "byteLength" : 832464,
            "byteOffset" : 5245744
        },
        {
            "buffer" : 0,
            "byteLength" : 240084,
            "byteOffset" : 6078208
        },
        {
            "buffer" : 0,
            "byteLength" : 240084,
            "byteOffset" : 6318292
        },
        {
            "buffer" : 0,
            "byteLength" : 160056,
            "byteOffset" : 6558376
        },
        {
            "buffer" : 0,
            "byteLength" : 49686,
            "byteOffset" : 6718432
        }
    ],
    "samplers" : [
        {
            "magFilter" : 9729,
            "minFilter" : 9987
        }
    ],
    "buffers" : [
        {
            "byteLength" : 6768120,
            "uri" : "scene.bin"
        }
    ]
}
