{
  "accessors": [
    {
      "bufferView": 2,
      "componentType": 5126,
      "count": 65480,
      "max": [
        1.0,
        0.21613800525665283,
        0.1837490051984787
      ],
      "min": [
        -0.966625988483429,
        -0.21786800026893616,
        -0.20721200108528137
      ],
      "type": "VEC3"
    },
    {
      "bufferView": 2,
      "byteOffset": 785760,
      "componentType": 5126,
      "count": 65480,
      "max": [
        1.0,
        1.0,
        1.0
      ],
      "min": [
        -1.0,
        -1.0,
        -1.0
      ],
      "type": "VEC3"
    },
    {
      "bufferView": 3,
      "componentType": 5126,
      "count": 65480,
      "max": [
        1.0,
        1.0,
        1.0,
        1.0
      ],
      "min": [
        -1.0,
        -1.0,
        -1.0,
        -1.0
      ],
      "type": "VEC4"
    },
    {
      "bufferView": 1,
      "componentType": 5126,
      "count": 65480,
      "max": [
        0.9868450164794922,
        0.9994999766349792
      ],
      "min": [
        0.0005000000237487257,
        0.0005000230157747865
      ],
      "type": "VEC2"
    },
    {
      "bufferView": 0,
      "componentType": 5125,
      "count": 203118,
      "type": "SCALAR"
    },
    {
      "bufferView": 2,
      "byteOffset": 1571520,
      "componentType": 5126,
      "count": 54523,
      "max": [
        1.0,
        0.21786800026893616,
        0.21065199375152588
      ],
      "min": [
        -1.0,
        -0.21754199266433716,
        -0.21065199375152588
      ],
      "type": "VEC3"
    },
    {
      "bufferView": 2,
      "byteOffset": 2225796,
      "componentType": 5126,
      "count": 54523,
      "max": [
        1.0,
        1.0,
        1.0
      ],
      "min": [
        -1.0,
        -1.0,
        -1.0
      ],
      "type": "VEC3"
    },
    {
      "bufferView": 3,
      "byteOffset": 1047680,
      "componentType": 5126,
      "count": 54523,
      "max": [
        1.0,
        1.0,
        1.0,
        1.0
      ],
      "min": [
        -1.0,
        -1.0,
        -1.0,
        -1.0
      ],
      "type": "VEC4"
    },
    {
      "bufferView": 1,
      "byteOffset": 523840,
      "componentType": 5126,
      "count": 54523,
      "max": [
        0.9862440228462219,
        0.9994999766349792
      ],
      "min": [
        0.0005000000237487257,
        0.0005000230157747865
      ],
      "type": "VEC2"
    },
    {
      "bufferView": 0,
      "byteOffset": 812472,
      "componentType": 5125,
      "count": 173127,
      "type": "SCALAR"
    },
    {
      "bufferView": 2,
      "byteOffset": 2880072,
      "componentType": 5126,
      "count": 48,
      "max": [
        0.7197890281677246,
        -0.10388399660587311,
        0.10400299727916718
      ],
      "min": [
        0.5576170086860657,
        -0.11267799884080887,
        -0.03138180077075958
      ],
      "type": "VEC3"
    },
    {
      "bufferView": 2,
      "byteOffset": 2880648,
      "componentType": 5126,
      "count": 48,
      "max": [
        0.9961952567100525,
        9.186840543407016e-06,
        0.9191250205039978
      ],
      "min": [
        -0.9984390139579773,
        -3.041478521481622e-05,
        -0.6427919268608093
      ],
      "type": "VEC3"
    },
    {
      "bufferView": 1,
      "byteOffset": 960024,
      "componentType": 5126,
      "count": 48,
      "max": [
        0.7243289947509766,
        0.7948079705238342
      ],
      "min": [
        0.3962379992008209,
        0.055962901562452316
      ],
      "type": "VEC2"
    },
    {
      "bufferView": 0,
      "byteOffset": 1504980,
      "componentType": 5125,
      "count": 108,
      "type": "SCALAR"
    },
    {
      "bufferView": 2,
      "byteOffset": 2881224,
      "componentType": 5126,
      "count": 48,
      "max": [
        0.7216789722442627,
        -0.10388399660587311,
        0.10523699969053268
      ],
      "min": [
        0.5554789900779724,
        -0.11267799884080887,
        -0.03390999883413315
      ],
      "type": "VEC3"
    },
    {
      "bufferView": 2,
      "byteOffset": 2881800,
      "componentType": 5126,
      "count": 48,
      "max": [
        0.9969415068626404,
        8.69994892127579e-06,
        0.6427913308143616
      ],
      "min": [
        -0.9961952567100525,
        -2.2361007722793147e-05,
        -0.8776857256889343
      ],
      "type": "VEC3"
    },
    {
      "bufferView": 1,
      "byteOffset": 960408,
      "componentType": 5126,
      "count": 48,
      "max": [
        0.4924899935722351,
        0.5355319976806641
      ],
      "min": [
        0.4781149923801422,
        0.2908340096473694
      ],
      "type": "VEC2"
    },
    {
      "bufferView": 0,
      "byteOffset": 1505412,
      "componentType": 5125,
      "count": 108,
      "type": "SCALAR"
    },
    {
      "bufferView": 2,
      "byteOffset": 2882376,
      "componentType": 5126,
      "count": 48,
      "max": [
        0.7216789722442627,
        -0.1072700023651123,
        0.10523699969053268
      ],
      "min": [
        0.5554789900779724,
        -0.11267799884080887,
        -0.03390999883413315
      ],
      "type": "VEC3"
    },
    {
      "bufferView": 2,
      "byteOffset": 2882952,
      "componentType": 5126,
      "count": 48,
      "max": [
        0.5938525795936584,
        -0.3826809525489807,
        0.9203647375106812
      ],
      "min": [
        -0.46193912625312805,
        -0.9907466173171997,
        0.10397206246852875
      ],
      "type": "VEC3"
    },
    {
      "bufferView": 1,
      "byteOffset": 960792,
      "componentType": 5126,
      "count": 48,
      "max": [
        0.4177219867706299,
        0.7753009796142578
      ],
      "min": [
        0.10057199746370316,
        0.3565109968185425
      ],
      "type": "VEC2"
    },
    {
      "bufferView": 0,
      "byteOffset": 1505844,
      "componentType": 5125,
      "count": 108,
      "type": "SCALAR"
    },
    {
      "bufferView": 2,
      "byteOffset": 2883528,
      "componentType": 5126,
      "count": 36,
      "max": [
        0.7216789722442627,
        -0.10388399660587311,
        0.10523699969053268
      ],
      "min": [
        0.5554789900779724,
        -0.1072700023651123,
        -0.02437240071594715
      ],
      "type": "VEC3"
    },
    {
      "bufferView": 2,
      "byteOffset": 2883960,
      "componentType": 5126,
      "count": 36,
      "max": [
        0.5938525795936584,
        0.9238808751106262,
        0.9203647375106812
      ],
      "min": [
        -0.46193912625312805,
        -0.38268381357192993,
        0.29315197467803955
      ],
      "type": "VEC3"
    },
    {
      "bufferView": 1,
      "byteOffset": 961176,
      "componentType": 5126,
      "count": 36,
      "max": [
        0.40272799134254456,
        0.7769629955291748
      ],
      "min": [
        0.10057199746370316,
        0.3539949953556061
      ],
      "type": "VEC2"
    },
    {
      "bufferView": 0,
      "byteOffset": 1506276,
      "componentType": 5125,
      "count": 72,
      "type": "SCALAR"
    },
    {
      "bufferView": 2,
      "byteOffset": 2884392,
      "componentType": 5126,
      "count": 36,
      "max": [
        0.7208750247955322,
        -0.10388399660587311,
        0.10415299981832504
      ],
      "min": [
        0.5561050176620483,
        -0.10836800187826157,
        -0.03390999883413315
      ],
      "type": "VEC3"
    },
    {
      "bufferView": 2,
      "byteOffset": 2884824,
      "componentType": 5126,
      "count": 36,
      "max": [
        0.24598294496536255,
        0.9893240928649902,
        0.3812301456928253
      ],
      "min": [
        -0.21162310242652893,
        0.9238783717155457,
        -0.3279760777950287
      ],
      "type": "VEC3"
    },
    {
      "bufferView": 1,
      "byteOffset": 961464,
      "componentType": 5126,
      "count": 36,
      "max": [
        0.4008390009403229,
        0.7902590036392212
      ],
      "min": [
        0.10057199746370316,
        0.33994799852371216
      ],
      "type": "VEC2"
    },
    {
      "bufferView": 0,
      "byteOffset": 1506564,
      "componentType": 5125,
      "count": 72,
      "type": "SCALAR"
    }
  ],
  "asset": {
    "extras": {
      "author": "Duznot (https://sketchfab.com/duz_vr)",
      "license": "CC-BY-4.0 (http://creativecommons.org/licenses/by/4.0/)",
      "source": "https://sketchfab.com/3d-models/santas-moonbase-sci-fi-corridor-challenge-0a99373ca87742738b2f69a13883ffcb",
      "title": "Santa's Moonbase - Sci-Fi Corridor Challenge"
    },
    "generator": "Sketchfab-12.68.0",
    "version": "2.0"
  },
  "bufferViews": [
    {
      "buffer": 0,
      "byteLength": 1506852,
      "name": "floatBufferViews",
      "target": 34963
    },
    {
      "buffer": 0,
      "byteLength": 961752,
      "byteOffset": 1506852,
      "byteStride": 8,
      "name": "floatBufferViews",
      "target": 34962
    },
    {
      "buffer": 0,
      "byteLength": 2885256,
      "byteOffset": 2468604,
      "byteStride": 12,
      "name": "floatBufferViews",
      "target": 34962
    },
    {
      "buffer": 0,
      "byteLength": 1920048,
      "byteOffset": 5353860,
      "byteStride": 16,
      "name": "floatBufferViews",
      "target": 34962
    }
  ],
  "buffers": [
    {
      "byteLength": 7273908,
      "uri": "scene.bin"
    }
  ],
  "images": [
    {
      "uri": "textures/01___Default_baseColor.jpeg"
    },
    {
      "uri": "textures/01___Default_metallicRoughness.png"
    },
    {
      "uri": "textures/01___Default_emissive.jpeg"
    },
    {
      "uri": "textures/01___Default_normal.png"
    }
  ],
  "materials": [
    {
      "doubleSided": true,
      "emissiveFactor": [
        1.0,
        1.0,
        1.0
      ],
      "emissiveTexture": {
        "index": 2
      },
      "name": "01___Default",
      "normalTexture": {
        "index": 3
      },
      "pbrMetallicRoughness": {
        "baseColorTexture": {
          "index": 0
        },
        "metallicRoughnessTexture": {
          "index": 1
        }
      }
    },
    {
      "doubleSided": true,
      "name": "Material_187",
      "pbrMetallicRoughness": {
        "baseColorFactor": [
          0.588,
          0.588,
          0.588,
          1.0
        ],
        "metallicFactor": 0.0
      }
    },
    {
      "doubleSided": true,
      "name": "Material_186",
      "pbrMetallicRoughness": {
        "metallicFactor": 0.0
      }
    },
    {
      "doubleSided": true,
      "name": "Material_190",
      "pbrMetallicRoughness": {
        "baseColorFactor": [
          0.588,
          0.588,
          0.588,
          1.0
        ],
        "metallicFactor": 0.0
      }
    },
    {
      "doubleSided": true,
      "name": "Material_189",
      "pbrMetallicRoughness": {
        "baseColorFactor": [
          0.588,
          0.588,
          0.588,
          1.0
        ],
        "metallicFactor": 0.0
      }
    },
    {
      "doubleSided": true,
      "name": "Material_191",
      "pbrMetallicRoughness": {
        "baseColorTexture": {
          "index": 0
        },
        "metallicFactor": 0.0
      }
    }
  ],
  "meshes": [
    {
      "name": "defaultMaterial",
      "primitives": [
        {
          "attributes": {
            "NORMAL": 1,
            "POSITION": 0,
            "TANGENT": 2,
            "TEXCOORD_0": 3
          },
          "indices": 4,
          "material": 0,
          "mode": 4
        }
      ]
    },
    {
      "name": "defaultMaterial",
      "primitives": [
        {
          "attributes": {
            "NORMAL": 6,
            "POSITION": 5,
            "TANGENT": 7,
            "TEXCOORD_0": 8
          },
          "indices": 9,
          "material": 0,
          "mode": 4
        }
      ]
    },
    {
      "name": "defaultMaterial",
      "primitives": [
        {
          "attributes": {
            "NORMAL": 11,
            "POSITION": 10,
            "TEXCOORD_0": 12
          },
          "indices": 13,
          "material": 1,
          "mode": 4
        }
      ]
    },
    {
      "name": "defaultMaterial",
      "primitives": [
        {
          "attributes": {
            "NORMAL": 15,
            "POSITION": 14,
            "TEXCOORD_0": 16
          },
          "indices": 17,
          "material": 2,
          "mode": 4
        }
      ]
    },
    {
      "name": "defaultMaterial",
      "primitives": [
        {
          "attributes": {
            "NORMAL": 19,
            "POSITION": 18,
            "TEXCOORD_0": 20
          },
          "indices": 21,
          "material": 3,
          "mode": 4
        }
      ]
    },
    {
      "name": "defaultMaterial",
      "primitives": [
        {
          "attributes": {
            "NORMAL": 23,
            "POSITION": 22,
            "TEXCOORD_0": 24
          },
          "indices": 25,
          "material": 4,
          "mode": 4
        }
      ]
    },
    {
      "name": "defaultMaterial",
      "primitives": [
        {
          "attributes": {
            "NORMAL": 27,
            "POSITION": 26,
            "TEXCOORD_0": 28
          },
          "indices": 29,
          "material": 5,
          "mode": 4
        }
      ]
    }
  ],
  "nodes": [
    {
      "children": [
        1
      ],
      "matrix": [
        6.8171467781066895,
        0.0,
        0.0,
        0.0,
        0.0,
        1.51371066306065e-15,
        -6.8171467781066895,
        0.0,
        0.0,
        6.8171467781066895,
        1.51371066306065e-15,
        0.0,
        0.0,
        0.0,
        0.0,
        1.0
      ],
      "name": "Sketchfab_model"
    },
    {
      "children": [
        2
      ],
      "matrix": [
        1.0,
        0.0,
        0.0,
        0.0,
        0.0,
        -4.371139006309477e-08,
        0.999999999999999,
        0.0,
        0.0,
        -0.999999999999999,
        -4.371139006309477e-08,
        0.0,
        0.0,
        0.0,
        0.0,
        1.0
      ],
      "name": "Collada visual scene group"
    },
    {
      "children": [
        3
      ],
      "name": "RootNode"
    },
    {
      "children": [
        4
      ],
      "name": "2a8cfb30cc494fc6813c1603affb2df3.fbx"
    },
    {
      "children": [
        5
      ],
      "name": "RootNode"
    },
    {
      "children": [
        6
      ],
      "name": "Object033"
    },
    {
      "children": [
        7,
        9,
        11,
        13,
        15,
        17,
        19
      ],
      "name": "nodes_5"
    },
    {
      "children": [
        8
      ],
      "name": "Object033_01"
    },
    {
      "mesh": 0,
      "name": "defaultMaterial"
    },
    {
      "children": [
        10
      ],
      "name": "Object033_01"
    },
    {
      "mesh": 1,
      "name": "defaultMaterial"
    },
    {
      "children": [
        12
      ],
      "name": "Object033_Material"
    },
    {
      "mesh": 2,
      "name": "defaultMaterial"
    },
    {
      "children": [
        14
      ],
      "name": "Object033_Material"
    },
    {
      "mesh": 3,
      "name": "defaultMaterial"
    },
    {
      "children": [
        16
      ],
      "name": "Object033_Material"
    },
    {
      "mesh": 4,
      "name": "defaultMaterial"
    },
    {
      "children": [
        18
      ],
      "name": "Object033_Material"
    },
    {
      "mesh": 5,
      "name": "defaultMaterial"
    },
    {
      "children": [
        20
      ],
      "name": "Object033_Material"
    },
    {
      "mesh": 6,
      "name": "defaultMaterial"
    }
  ],
  "samplers": [
    {
      "magFilter": 9729,
      "minFilter": 9987,
      "wrapS": 10497,
      "wrapT": 10497
    }
  ],
  "scene": 0,
  "scenes": [
    {
      "name": "Sketchfab_Scene",
      "nodes": [
        0
      ]
    }
  ],
  "textures": [
    {
      "sampler": 0,
      "source": 0
    },
    {
      "sampler": 0,
      "source": 1
    },
    {
      "sampler": 0,
      "source": 2
    },
    {
      "sampler": 0,
      "source": 3
    }
  ]
}
