mtllib cone.mtl

v -10.30115604400634764 8.24113082885742188 1.98717426904635984
v -8.24113082885742188 10.30115604400634764 1.98717426904635984
v -10.30115604400634764 8.24113082885742188 0.0543196166415747
v -8.24113082885742188 10.30115604400634764 0.0543196166415747
v 8.24113082885742188 10.30115604400634764 1.98717426904635984
v 10.30115604400634764 8.24113082885742188 1.98717426904635984
v 10.30115604400634764 8.24113082885742188 0.0543196166415747
v 8.24113082885742188 10.30115604400634764 0.0543196166415747
v -8.24113082885742188 -10.30115604400634764 1.98717426904635984
v -10.30115604400634764 -8.24113082885742188 1.98717426904635984
v -10.30115604400634764 -8.24113082885742188 0.0543196166415747
v -8.24113082885742188 -10.30115604400634764 0.0543196166415747
v 10.30115604400634764 -8.24113082885742188 1.98717426904635984
v 8.24113082885742188 -10.30115604400634764 1.98717426904635984
v 8.24113082885742188 -10.30115604400634764 0.0543196166415747
v 10.30115604400634764 -8.24113082885742188 0.0543196166415747
v 0.5653454661369324 0.3265390694141388 27.50199222215610104
v 0.3265429735183716 0.56534200906753544 27.50199222215610104
v 1.5881689705565805E-06 0.65308016538619992 27.50199222215610104
v -0.32653945684432984 0.56534200906753544 27.50199222215610104
v -0.56534200906753544 0.3265390694141388 27.50199222215610104
v -0.65308070182800296 -1.9868027720804093E-06 27.50199222215610104
v -0.56534200906753544 -0.3265434205532074 27.50199222215610104
v -0.32653945684432984 -0.5653464198112488 27.50199222215610104
v 1.5881689705565805E-06 -0.65308463573455808 27.50199222215610104
v 0.3265429735183716 -0.5653464198112488 27.50199222215610104
v 0.5653454661369324 -0.3265434205532074 27.50199222215610104
v 0.65308403968811032 -1.9868027720804093E-06 27.50199222215610104
v -3.35439181327819824 -5.80995512008666992 4.291761156405979
v -5.80995512008666992 -3.35439181327819824 4.291761156405979
v -6.70878362655639648 -1.8206330310022167E-07 4.291761156405979
v -5.80995512008666992 3.35439181327819824 4.291761156405979
v -3.35439181327819824 5.80995512008666992 4.291761156405979
v 1.4553393157257233E-07 6.70878362655639648 4.291761156405979
v 3.35439181327819824 5.80995512008666992 4.291761156405979
v 5.80995512008666992 3.35439181327819824 4.291761156405979
v 6.70878362655639648 -1.8206330310022167E-07 4.291761156405979
v 5.80995512008666992 -3.35439181327819824 4.291761156405979
v 3.35439181327819824 -5.80995512008666992 4.291761156405979
v 1.4553393157257233E-07 -6.70878362655639648 4.291761156405979
v 7.359710693359375 4.2490215301513672 1.91057163127856816
v 4.24912977218627928 7.35960197448730468 1.91057163127856816
v 3.95207238197326656 6.84516286849975584 3.89630460390048576
v 6.84516286849975584 3.95207166671752928 3.89630460390048576
v 0 8.49815082550048832 1.91057163127856816
v 1.7146494712960703E-07 7.9041438102722168 3.89630460390048576
v -4.24912977218627928 7.35960197448730468 1.91057163127856816
v -3.95207166671752928 6.84516286849975584 3.89630460390048576
v -7.359710693359375 4.2490215301513672 1.91057163127856816
v -6.84516286849975584 3.95207166671752928 3.89630460390048576
v -8.49825954437255856 -0.00010843201744137332 1.91057163127856816
v -7.9041438102722168 -2.1450304643622076E-07 3.89630460390048576
v -7.359710693359375 -4.2492384910583496 1.91057163127856816
v -6.84516286849975584 -3.95207238197326656 3.89630460390048576
v -4.24912977218627928 -7.35981941223144532 1.91057163127856816
v -3.95207166671752928 -6.84516286849975584 3.89630460390048576
v 0 -8.49836826324462888 1.91057163127856816
v 1.7146494712960703E-07 -7.90414476394653328 3.89630460390048576
v 4.24912977218627928 -7.35981941223144532 1.91057163127856816
v 3.95207238197326656 -6.84516286849975584 3.89630460390048576
v 7.359710693359375 -4.2492384910583496 1.91057163127856816
v 6.84516286849975584 -3.95207238197326656 3.89630460390048576
v 8.49825954437255856 -0.00010843201744137332 1.91057163127856816
v 7.90414476394653328 -2.1450304643622076E-07 3.89630460390048576
# 64 vertices

vn -0.11041942238807678 0.99388509988784784 0
vn -0.11041942238807678 0.99388509988784784 0
vn 0.11041942238807678 0.99388509988784784 0
vn 0.11041942238807678 0.99388509988784784 0
vn -0.11041942238807678 -0.99388509988784784 0
vn -0.11041942238807678 -0.99388509988784784 0
vn 0.11041942238807678 -0.99388509988784784 0
vn 0.11041942238807678 -0.99388509988784784 0
vn 0.99388509988784784 -0.11041940748691558 0
vn 0.99388509988784784 -0.11041940748691558 0
vn 0.99388509988784784 0.11041940748691558 0
vn 0.99388509988784784 0.11041940748691558 0
vn -0.99388509988784784 -0.11041940748691558 0
vn -0.99388509988784784 -0.11041940748691558 0
vn -0.99388509988784784 0.11041940748691558 0
vn -0.99388509988784784 0.11041940748691558 0
vn 2.2926636145115253E-09 0 -1
vn 2.2926636145115253E-09 0 -1
vn 2.2926636145115253E-09 0 -1
vn 2.2926636145115253E-09 0 -1
vn 2.2926636145115253E-09 0 -1
vn 2.2926636145115253E-09 0 -1
vn 2.2926636145115253E-09 0 -1
vn 2.2926636145115253E-09 0 -1
vn 0 0 1
vn 0 0 1
vn 0 0 1
vn 0 0 1
vn 0 0 1
vn 0 0 1
vn 0 0 1
vn 0 0 1
vn -0.99388509988784784 0.11041940748691558 0
vn -0.11041942238807678 0.99388509988784784 0
vn -0.11041942238807678 0.99388509988784784 0
vn -0.99388509988784784 0.11041940748691558 0
vn 0.11041942238807678 0.99388509988784784 0
vn 0.99388509988784784 0.11041940748691558 0
vn 0.99388509988784784 0.11041940748691558 0
vn 0.11041942238807678 0.99388509988784784 0
vn -0.11041942238807678 -0.99388509988784784 0
vn -0.99388509988784784 -0.11041940748691558 0
vn -0.99388509988784784 -0.11041940748691558 0
vn -0.11041942238807678 -0.99388509988784784 0
vn 0.99388509988784784 -0.11041940748691558 0
vn 0.11041942238807678 -0.99388509988784784 0
vn 0.11041942238807678 -0.99388509988784784 0
vn 0.99388509988784784 -0.11041940748691558 0
vn 0.8296943306922912 0.47901514172554016 0.28662127256393432
vn 0.47902795672416688 0.82969295978546144 0.28660383820533752
vn 0.42129805684089664 0.72971248626708992 0.5385421514511108
vn 0.72970288991928096 0.42130208015441896 0.5385519862174988
vn 0.47902795672416688 0.82969295978546144 0.28660383820533752
vn -2.811639276956157E-08 0.95805144309997552 0.28659623861312868
vn 1.3125279529901945E-08 0.84260153770446784 0.53853750228881832
vn 0.42129805684089664 0.72971248626708992 0.5385421514511108
vn -2.811639276956157E-08 0.95805144309997552 0.28659623861312868
vn -0.479028046131134 0.82969301939010624 0.28660380840301512
vn -0.42129799723625184 0.72971254587173456 0.53854203224182128
vn 1.3125279529901945E-08 0.84260153770446784 0.53853750228881832
vn -0.479028046131134 0.82969301939010624 0.28660380840301512
vn -0.8296943306922912 0.47901508212089536 0.28662145137786864
vn -0.72970288991928096 0.42130205035209656 0.53855210542678832
vn -0.42129799723625184 0.72971254587173456 0.53854203224182128
vn -0.8296943306922912 0.47901508212089536 0.28662145137786864
vn -0.95803707838058464 -8.678535778017249E-06 0.28664430975914
vn -0.84258413314819328 6.068635229894426E-06 0.53856468200683592
vn -0.72970288991928096 0.42130205035209656 0.53855210542678832
vn -0.95803707838058464 -8.678535778017249E-06 0.28664430975914
vn -0.82967436313629152 -0.47902089357376096 0.2866694927215576
vn -0.72969305515289312 -0.42128425836563112 0.53857928514480592
vn -0.84258413314819328 6.068635229894426E-06 0.53856468200683592
vn -0.82967436313629152 -0.47902089357376096 0.2866694927215576
vn -0.47900798916816712 -0.82967579364776608 0.2866869270801544
vn -0.42128825187683104 -0.72968339920043952 0.53858929872512816
vn -0.72969305515289312 -0.42128425836563112 0.53857928514480592
vn -0.47900798916816712 -0.82967579364776608 0.2866869270801544
vn 9.3720036176137E-09 -0.95802271366119392 0.28669211268424988
vn 1.4765133116156903E-08 -0.84256678819656368 0.53859192132949832
vn -0.42128825187683104 -0.72968339920043952 0.53858929872512816
vn 9.3720036176137E-09 -0.95802271366119392 0.28669211268424988
vn 0.47900789976119992 -0.82967591285705568 0.2866869866847992
vn 0.42128822207450864 -0.72968339920043952 0.53858929872512816
vn 1.4765133116156903E-08 -0.84256678819656368 0.53859192132949832
vn 0.47900789976119992 -0.82967591285705568 0.2866869866847992
vn 0.82967436313629152 -0.47902098298072816 0.28666934370994568
vn 0.72969299554824832 -0.42128428816795352 0.53857928514480592
vn 0.42128822207450864 -0.72968339920043952 0.53858929872512816
vn 0.82967436313629152 -0.47902098298072816 0.28666934370994568
vn 0.95803713798522944 -8.659791092213709E-06 0.28664407134056092
vn 0.84258419275283808 6.083401785872411E-06 0.53856468200683592
vn 0.72969299554824832 -0.42128428816795352 0.53857928514480592
vn 0.95803713798522944 -8.659791092213709E-06 0.28664407134056092
vn 0.8296943306922912 0.47901514172554016 0.28662127256393432
vn 0.72970288991928096 0.42130208015441896 0.5385519862174988
vn 0.84258419275283808 6.083401785872411E-06 0.53856468200683592
vn 0 0 1
vn 0 0 1
vn 0 0 1
vn 0 0 1
vn 0 0 1
vn 0 0 1
vn 0 0 1
vn 0 0 1
vn 0 0 1
vn 0 0 0.9999999403953552
vn 0 0 1
vn 0 0 1
vn -0.81237739324569696 -0.46904402971267704 0.34646904468536376
vn -0.46904391050338744 -0.81237733364105232 0.34646904468536376
vn -0.48383095860481264 -0.83795720338821408 0.25245854258537292
vn -0.83795708417892464 -0.48383104801177976 0.25245857238769532
vn -0.93806028366088864 4.17661488727461E-10 0.34647208452224732
vn -0.81237739324569696 -0.46904402971267704 0.34646904468536376
vn -0.83795708417892464 -0.48383104801177976 0.25245857238769532
vn -0.96760624647140496 -1.320123477199786E-08 0.25246396660804748
vn -0.81237739324569696 0.46904397010803224 0.34646910429000856
vn -0.93806028366088864 4.17661488727461E-10 0.34647208452224732
vn -0.96760624647140496 -1.320123477199786E-08 0.25246396660804748
vn -0.83795714378356928 0.48383095860481264 0.25245863199234008
vn -0.46904408931732176 0.81237727403640752 0.34646913409233092
vn -0.81237739324569696 0.46904397010803224 0.34646910429000856
vn -0.83795714378356928 0.48383095860481264 0.25245863199234008
vn -0.48383107781410216 0.83795708417892464 0.25245866179466248
vn -1.3365165862921913E-08 0.93806028366088864 0.34647202491760252
vn -0.46904408931732176 0.81237727403640752 0.34646913409233092
vn -0.48383107781410216 0.83795708417892464 0.25245866179466248
vn 0 0.96760630607604976 0.25246399641036988
vn 0.46904408931732176 0.81237733364105232 0.34646904468536376
vn -1.3365165862921913E-08 0.93806028366088864 0.34647202491760252
vn 0 0.96760630607604976 0.25246399641036988
vn 0.48383113741874696 0.83795708417892464 0.25245857238769532
vn 0.81237733364105232 0.46904405951499936 0.3464689552783966
vn 0.46904408931732176 0.81237733364105232 0.34646904468536376
vn 0.48383113741874696 0.83795708417892464 0.25245857238769532
vn 0.83795714378356928 0.48383101820945736 0.25245851278305052
vn 0.93806028366088864 2.714799762770781E-08 0.34647199511528016
vn 0.81237733364105232 0.46904405951499936 0.3464689552783966
vn 0.83795714378356928 0.48383101820945736 0.25245851278305052
vn 0.96760630607604976 1.32012365483547E-08 0.25246387720108032
vn 0.81237733364105232 -0.46904402971267704 0.3464689552783966
vn 0.93806028366088864 2.714799762770781E-08 0.34647199511528016
vn 0.96760630607604976 1.32012365483547E-08 0.25246387720108032
vn 0.83795714378356928 -0.48383101820945736 0.25245842337608336
vn 0.46904397010803224 -0.81237739324569696 0.346468985080719
vn 0.81237733364105232 -0.46904402971267704 0.3464689552783966
vn 0.83795714378356928 -0.48383101820945736 0.25245842337608336
vn 0.48383101820945736 -0.83795720338821408 0.25245845317840576
vn -2.5059689878759173E-09 -0.93806040287017824 0.34647193551063536
vn 0.46904397010803224 -0.81237739324569696 0.346468985080719
vn 0.48383101820945736 -0.83795720338821408 0.25245845317840576
vn 0 -0.96760636568069456 0.25246378779411316
vn -0.46904391050338744 -0.81237733364105232 0.34646904468536376
vn -2.5059689878759173E-09 -0.93806040287017824 0.34647193551063536
vn 0 -0.96760636568069456 0.25246378779411316
vn -0.48383095860481264 -0.83795720338821408 0.25245854258537292
vn 0.46904408931732176 0.81237733364105232 0.34646904468536376
vn 0.81237733364105232 0.46904405951499936 0.3464689552783966
vn 0.72970288991928096 0.42130208015441896 0.5385519862174988
vn 0.42129805684089664 0.72971248626708992 0.5385421514511108
vn -1.3365165862921913E-08 0.93806028366088864 0.34647202491760252
vn 0.46904408931732176 0.81237733364105232 0.34646904468536376
vn 0.42129805684089664 0.72971248626708992 0.5385421514511108
vn 1.3125279529901945E-08 0.84260153770446784 0.53853750228881832
vn -0.46904408931732176 0.81237727403640752 0.34646913409233092
vn -1.3365165862921913E-08 0.93806028366088864 0.34647202491760252
vn 1.3125279529901945E-08 0.84260153770446784 0.53853750228881832
vn -0.42129799723625184 0.72971254587173456 0.53854203224182128
vn -0.81237739324569696 0.46904397010803224 0.34646910429000856
vn -0.46904408931732176 0.81237727403640752 0.34646913409233092
vn -0.42129799723625184 0.72971254587173456 0.53854203224182128
vn -0.72970288991928096 0.42130205035209656 0.53855210542678832
vn -0.93806028366088864 4.17661488727461E-10 0.34647208452224732
vn -0.81237739324569696 0.46904397010803224 0.34646910429000856
vn -0.72970288991928096 0.42130205035209656 0.53855210542678832
vn -0.84258413314819328 6.068635229894426E-06 0.53856468200683592
vn -0.81237739324569696 -0.46904402971267704 0.34646904468536376
vn -0.93806028366088864 4.17661488727461E-10 0.34647208452224732
vn -0.84258413314819328 6.068635229894426E-06 0.53856468200683592
vn -0.72969305515289312 -0.42128425836563112 0.53857928514480592
vn -0.46904391050338744 -0.81237733364105232 0.34646904468536376
vn -0.81237739324569696 -0.46904402971267704 0.34646904468536376
vn -0.72969305515289312 -0.42128425836563112 0.53857928514480592
vn -0.42128825187683104 -0.72968339920043952 0.53858929872512816
vn -2.5059689878759173E-09 -0.93806040287017824 0.34647193551063536
vn -0.46904391050338744 -0.81237733364105232 0.34646904468536376
vn -0.42128825187683104 -0.72968339920043952 0.53858929872512816
vn 1.4765133116156903E-08 -0.84256678819656368 0.53859192132949832
vn 0.46904397010803224 -0.81237739324569696 0.346468985080719
vn -2.5059689878759173E-09 -0.93806040287017824 0.34647193551063536
vn 1.4765133116156903E-08 -0.84256678819656368 0.53859192132949832
vn 0.42128822207450864 -0.72968339920043952 0.53858929872512816
vn 0.81237733364105232 -0.46904402971267704 0.3464689552783966
vn 0.46904397010803224 -0.81237739324569696 0.346468985080719
vn 0.42128822207450864 -0.72968339920043952 0.53858929872512816
vn 0.72969299554824832 -0.42128428816795352 0.53857928514480592
vn 0.93806028366088864 2.714799762770781E-08 0.34647199511528016
vn 0.81237733364105232 -0.46904402971267704 0.3464689552783966
vn 0.72969299554824832 -0.42128428816795352 0.53857928514480592
vn 0.84258419275283808 6.083401785872411E-06 0.53856468200683592
vn 0.81237733364105232 0.46904405951499936 0.3464689552783966
vn 0.93806028366088864 2.714799762770781E-08 0.34647199511528016
vn 0.84258419275283808 6.083401785872411E-06 0.53856468200683592
vn 0.72970288991928096 0.42130208015441896 0.5385519862174988
# 204 vertex normals

vt 0.88704591989517216 0.57529187202453616 0
vt 0.9364362359046936 0.57529187202453616 0
vt 0.99472326040267952 0.00609952211380004 0
vt 0.88704597949981696 0.9964638352394104 0
vt 0.9364362359046936 0.00523173809051513 0
vt 0.94541949033737184 0.99559611082077024 0
vt 0.94541949033737184 0.5751614570617676 0
vt 0.99472326040267952 0.5751614570617676 0
vt 0.99472326040267952 0.5008477568626404 0
vt 0.94541949033737184 0.5008477568626404 0
vt 0.94541949033737184 0.0804133415222168 0
vt 0.99472326040267952 0.0804133415222168 0
vt 0.88704591989517216 0.07967573404312134 0
vt 0.9364362359046936 0.07967573404312134 0
vt 0.9364362359046936 0.5008477568626404 0
vt 0.8870460391044616 0.5008477568626404 0
vt 0.05057503655552864 0.61308813095092776 0
vt 0.06553088128566742 0.69192713499069216 0
vt 0.6416985392570496 0.54542940855026248 0
vt 0.70324474573135376 0.60737466812133792 0
vt 0.75105881690979008 0.67531406879425048 0
vt 0.78864932060241696 0.74851667881011968 0
vt 0.81599885225296016 0.82611662149429328 0
vt 0.8322829604148864 0.9075113534927368 0
vt 0.23100526630878448 0.96511429548263552 0
vt 0.17228323221206666 0.90448319911956784 0
vt 0.1268048733472824 0.83831572532653808 0
vt 0.09120921790599822 0.76719731092453008 0
vt 0.58627414703369144 0.54438346624374392 0
vt 0.58580589294433592 0.53716975450515744 0
vt 0.26739421486854552 0.95723426342010496 0
vt 0.2716403603553772 0.96335655450820928 0
vt 0.275038480758667 0.96999549865722656 0
vt 0.277520090341568 0.9770296216011048 0
vt 0.279046893119812 0.98432636260986336 0
vt 0.27960774302482604 0.99178218841552736 0
vt 0.59727102518081664 0.5706960558891296 0
vt 0.5932269096374512 0.5647332072257996 0
vt 0.59000766277313232 0.55827951431274416 0
vt 0.58767795562744144 0.5514535307884216 0
vt 0.78970283269882208 0.83270269632339472 0
vt 0.8052359223365784 0.90909671783447264 0
vt 0.76369339227676384 0.75902861356735232 0
vt 0.727907121181488 0.68957555294036864 0
vt 0.68295347690582272 0.62590020895004272 0
vt 0.07346610724925995 0.53711724281311032 0
vt 0.07673792541027069 0.61180329322814944 0
vt 0.0910128802061081 0.68580794334411624 0
vt 0.1154337152838707 0.75728589296340944 0
vt 0.14933004975318908 0.82478958368301392 0
vt 0.19211216270923616 0.8868292570114136 0
vt 0.80939072370529168 0.98630744218826288 0
vt 0.81615674495697024 0.6195659041404724 0
vt 0.80228066444396976 0.61687630414962768 0
vt 0.8295122385025024 0.61493778228759768 0
vt 0.8387607336044312 0.60427159070968624 0
vt 0.84144973754882816 0.59039533138275144 0
vt 0.83682203292846672 0.57704007625579832 0
vt 0.82615578174591072 0.56779146194458008 0
vt 0.81227970123291008 0.56510233879089352 0
vt 0.79892420768737792 0.56973004341125488 0
vt 0.78967571258544928 0.58039629459381104 0
vt 0.78698670864105232 0.59427285194396976 0
vt 0.7916144132614136 0.60762780904769896 0
vt 0.87537723779678352 0.99743103981018064 0
vt 0.20607478916645052 0.99520671367645264 0
vt 0.00975166447460651 0.52577114105224608 0
vt 0.66698408126831056 0.51394098997116088 0
vt 0.05491184070706367 0.7823892831802368 0
vt 0.02742143347859382 0.70165669918060304 0
vt 0.0930343121290207 0.85862785577774048 0
vt 0.14242172241210938 0.9300342798233032 0
vt 0.83497160673141472 0.99416798353195184 0
vt 0.2430017441511154 0.94147360324859616 0
vt 0.87277728319168096 0.9037367701530456 0
vt 0.85532104969024656 0.81568223237991328 0
vt 0.82604062557220464 0.73243409395217888 0
vt 0.78576368093490608 0.65391635894775392 0
vt 0.73377364873886112 0.58052986860275272 0
vt 0.04879184439778328 0.52928268909454344 0
vt 0.62966150045394896 0.57000869512557984 0
vt 0.01139305718243122 0.61637675762176512 0
vt 0.60207647085189816 0.5760816931724548 0
vt 0.26236665248870848 0.95171689987182624 0
vt 0.5213370323181152 0.05745828151702881 0
vt 0.99472326040267952 0.99559611082077024 0
vt 0.83272761106491088 0.02444259263575077 0
vt 0.8870460391044616 0.00523173809051513 0
vt 0.00606394372880458 0.4697760343551636 0
vt 0.9364362359046936 0.9964638352394104 0
vt 0.56411278247833248 0.36040115356445312 0
vt 0.94541949033737184 0.00609952211380004 0
vt 0.5304409861564636 0.05811437219381332 0
vt 0.5639541149139404 0.02444259263575077 0
vt 0.5213370323181152 0.46968704462051392 0
vt 0.46985945105552672 0.52125364542007448 0
vt 0.05763059109449387 0.52125364542007448 0
vt 0.86639922857284544 0.05795580893754959 0
vt 0.46977040171623232 0.00598056707531213 0
vt 0.05754169076681137 0.00598056707531213 0
vt 0.5304409861564636 0.32688790559768676 0
vt 0.83288615942001344 0.36040115356445312 0
vt 0.86639922857284544 0.32672923803329468 0
vt 0.00606394372880458 0.05754721164703369 0
# 104 texture coords

g Conus_LP
usemtl blinn2
s 1
f 4/1/1 2/2/2 5/90/3 8/4/4
f 9/86/5 12/6/6 15/7/7 14/8/8
f 13/9/9 16/10/10 7/11/11 6/12/12
f 11/13/13 10/14/14 1/15/15 3/16/16
f 3/103/17 4/102/18 8/91/19 7/101/20 16/93/21 15/94/22 12/87/23 11/98/24
f 10/99/25 9/85/26 14/95/27 13/96/28 6/97/29 5/89/30 2/104/31 1/100/32
f 1/15/33 2/2/34 4/1/35 3/16/36
f 5/3/37 6/12/38 7/11/39 8/92/40
f 9/5/41 10/14/42 11/13/43 12/88/44
f 13/9/45 14/8/46 15/7/47 16/10/48
f 41/70/49 42/82/50 43/17/51 44/18/52
f 42/82/53 45/67/54 46/80/55 43/17/56
f 45/68/57 47/79/58 48/20/59 46/19/60
f 47/79/61 49/78/62 50/21/63 48/20/64
f 49/78/65 51/77/66 52/22/67 50/21/68
f 51/77/69 53/76/70 54/23/71 52/22/72
f 53/76/73 55/75/74 56/24/75 54/23/76
f 55/75/77 57/65/78 58/73/79 56/24/80
f 57/66/81 59/72/82 60/26/83 58/25/84
f 59/72/85 61/71/86 62/27/87 60/26/88
f 61/71/89 63/69/90 64/28/91 62/27/92
f 63/69/93 41/70/94 44/18/95 64/28/96
f 18/64/97 19/63/98 20/62/99 21/61/100 22/60/101 23/59/102 24/58/103 25/57/104 26/56/105 27/55/106 28/53/107 17/54/108
f 30/41/109 29/42/110 24/35/111 23/34/112
f 31/43/113 30/41/114 23/34/115 22/33/116
f 32/44/117 31/43/118 22/33/119 21/32/120
f 33/45/121 32/44/122 21/32/123 20/31/124
f 34/81/125 33/45/126 20/31/127 19/84/128
f 35/47/129 34/46/130 19/30/131 18/29/132
f 36/48/133 35/47/134 18/29/135 17/40/136
f 37/49/137 36/48/138 17/40/139 28/39/140
f 38/50/141 37/49/142 28/39/143 27/38/144
f 39/51/145 38/50/146 27/38/147 26/37/148
f 40/74/149 39/51/150 26/37/151 25/83/152
f 29/42/153 40/52/154 25/36/155 24/35/156
f 35/47/157 36/48/158 44/18/159 43/17/160
f 34/46/161 35/47/162 43/17/163 46/80/164
f 33/45/165 34/81/166 46/19/167 48/20/168
f 32/44/169 33/45/170 48/20/171 50/21/172
f 31/43/173 32/44/174 50/21/175 52/22/176
f 30/41/177 31/43/178 52/22/179 54/23/180
f 29/42/181 30/41/182 54/23/183 56/24/184
f 40/52/185 29/42/186 56/24/187 58/73/188
f 39/51/189 40/74/190 58/25/191 60/26/192
f 38/50/193 39/51/194 60/26/195 62/27/196
f 37/49/197 38/50/198 62/27/199 64/28/200
f 36/48/201 37/49/202 64/28/203 44/18/204
#47 polygons

